<?xml version="1.0" encoding="utf-8"?>
<!-- Generator: Adobe Illustrator 27.5.0, SVG Export Plug-In . SVG Version: 6.00 Build 0)  -->
<svg version="1.1" id="Layer_1" xmlns="http://www.w3.org/2000/svg" xmlns:xlink="http://www.w3.org/1999/xlink" x="0px" y="0px"
	 width="36px" height="36px" viewBox="0 0 36 36" style="enable-background:new 0 0 36 36;" xml:space="preserve">
<style type="text/css">
	.st0{fill:#29ABE2;}
</style>
<g>
	<g>
		<path class="st0" d="M2.1,18c0-4.7,0-9.3,0-14c0-1.2,0.6-1.9,1.9-1.9c9.3,0,18.7,0,28,0c1.2,0,1.9,0.6,1.9,1.9c0,9.3,0,18.7,0,28
			c0,1.3-0.6,1.9-1.9,1.9c-9.3,0-18.6,0-27.9,0c-1.3,0-1.9-0.6-1.9-1.9C2.1,27.3,2.1,22.7,2.1,18z M3.2,10.9c0,0.1,0,0.3,0,0.4
			c0,6.9,0,13.8,0,20.7c0,0.6,0.2,0.8,0.8,0.8c9.3,0,18.7,0,28,0c0.6,0,0.8-0.2,0.8-0.8c0-6.9,0-13.8,0-20.7c0-0.1,0-0.2,0-0.4
			C22.9,10.9,13.1,10.9,3.2,10.9z M32.8,9.8c0-0.1,0-0.2,0-0.3c0-1.8,0-3.6,0-5.5c0-0.6-0.2-0.7-0.8-0.7c-9.3,0-18.7,0-28,0
			C3.4,3.2,3.2,3.4,3.2,4c0,1.8,0,3.6,0,5.5c0,0.1,0,0.2,0,0.3C13.1,9.8,22.9,9.8,32.8,9.8z"/>
		<path class="st0" d="M12.5,14.2c0.2,0.1,0.5,0.2,0.8,0.4c0.4,0.2,0.8,0.5,1.1,0.8c0.1,0.1,0.3,0.2,0.4,0c0.1-0.1,0.2-0.1,0.3-0.1
			c0.7-0.1,0.9-0.6,0.9-1.2c0-0.3,0.1-0.6,0.1-0.9c0.2-0.7,0.8-1.2,1.5-1.2c0.2,0,0.5,0,0.7,0c0.7,0.1,1.2,0.7,1.4,1.5
			c0.1,0.4,0.1,0.9,0.2,1.3c0,0.1,0.1,0.2,0.2,0.3c0.1,0.1,0.3,0.1,0.4,0.2c0.5,0.4,0.9,0.2,1.4-0.2c0.2-0.2,0.5-0.4,0.7-0.5
			c0.7-0.5,1.5-0.4,2.2,0.3c0.6,0.6,0.7,1.5,0.3,2.2c-0.3,0.4-0.6,0.8-0.9,1.2c-0.1,0.1-0.1,0.3,0,0.4c0.1,0.2,0.2,0.5,0.3,0.7
			c0.1,0.3,0.3,0.4,0.5,0.4c0.4,0.1,0.9,0.1,1.3,0.2c0.8,0.1,1.3,0.8,1.4,1.6c0,1.3-0.4,1.8-1.7,2c-0.2,0-0.4,0.1-0.6,0.1
			c-0.6,0-0.8,0.3-1,0.8c-0.2,0.5-0.2,0.8,0.2,1.2c0.2,0.2,0.4,0.5,0.6,0.8c0.5,0.7,0.4,1.5-0.3,2.2c-0.7,0.7-1.5,0.8-2.2,0.3
			c-0.4-0.3-0.8-0.5-1.2-0.8c-0.2-0.1-0.3-0.2-0.5,0c-0.1,0.1-0.2,0.1-0.3,0.1c-0.7,0.1-0.9,0.5-0.9,1.1c0,0.3-0.1,0.6-0.1,0.9
			c-0.2,0.8-0.8,1.3-1.5,1.3c-0.2,0-0.5,0-0.7,0c-0.7-0.2-1.1-0.6-1.3-1.3c-0.1-0.5-0.2-1-0.3-1.5c0-0.1-0.2-0.2-0.3-0.3
			c-0.2-0.1-0.4-0.1-0.6-0.3c-0.3-0.2-0.6-0.2-0.9,0.1c-0.3,0.3-0.6,0.5-0.9,0.7c-0.8,0.5-1.6,0.4-2.3-0.4c-0.6-0.6-0.6-1.4-0.1-2.2
			c0.1-0.1,0.1-0.2,0.2-0.3c0.2-0.3,0.6-0.7,0.7-1c0-0.4-0.3-0.8-0.4-1.1c0-0.1-0.2-0.2-0.3-0.2c-0.5-0.1-0.9-0.2-1.4-0.2
			c-0.8-0.2-1.4-0.8-1.4-1.7c0-1,0.5-1.7,1.3-1.9c0.5-0.1,1-0.2,1.4-0.3c0.1,0,0.2-0.1,0.3-0.2c0.1-0.3,0.3-0.6,0.4-0.9
			c0-0.1,0-0.3,0-0.4c-0.3-0.4-0.5-0.8-0.8-1.1c-0.4-0.6-0.5-1.2-0.1-1.8C11,14.7,11.5,14.3,12.5,14.2z M18,30.6
			c0.5,0,0.7-0.1,0.7-0.6c0.1-0.6,0.2-1.2,0.3-1.8c0-0.3,0.2-0.4,0.5-0.5c0.5-0.2,1-0.4,1.4-0.6c0.3-0.2,0.6-0.2,0.8,0
			c0.5,0.3,0.9,0.7,1.4,1c0.4,0.3,0.6,0.3,0.9,0c0.4-0.3,0.5-0.6,0.2-1c-0.1-0.1-0.2-0.3-0.2-0.4c-0.2-0.3-0.5-0.6-0.8-1
			c-0.2-0.3-0.2-0.6-0.1-1c0.2-0.5,0.4-0.9,0.6-1.4c0.1-0.3,0.3-0.5,0.6-0.5c0.6-0.1,1.2-0.2,1.8-0.3c0.4-0.1,0.6-0.3,0.6-0.9
			c0-0.4-0.2-0.5-0.6-0.6c-0.6-0.1-1.2-0.2-1.8-0.3c-0.3-0.1-0.4-0.2-0.5-0.5c-0.2-0.5-0.3-1-0.6-1.4c-0.2-0.3-0.2-0.6,0-0.8
			c0.3-0.5,0.6-0.9,1-1.4c0.3-0.5,0.3-0.7,0-1c-0.4-0.4-0.6-0.4-1,0c-0.5,0.3-0.9,0.7-1.4,1c-0.3,0.2-0.5,0.2-0.8,0
			c-0.4-0.2-0.9-0.4-1.4-0.6c-0.4-0.1-0.6-0.3-0.6-0.7c-0.1-0.5-0.2-1.1-0.3-1.6c-0.1-0.6-0.2-0.7-0.8-0.7c-0.5,0-0.7,0.1-0.7,0.7
			c-0.1,0.6-0.2,1.1-0.3,1.7c0,0.3-0.2,0.5-0.5,0.6c-0.5,0.2-1,0.3-1.4,0.6c-0.3,0.2-0.6,0.2-0.9,0c-0.5-0.3-0.9-0.7-1.4-1
			c-0.4-0.3-0.6-0.3-1,0.1c-0.4,0.3-0.4,0.6-0.1,1c0.3,0.5,0.7,1,1,1.4c0.2,0.3,0.2,0.5,0,0.8c-0.2,0.4-0.4,0.9-0.6,1.3
			c-0.1,0.4-0.3,0.6-0.7,0.6c-0.5,0.1-1.1,0.2-1.6,0.3c-0.5,0.1-0.7,0.2-0.7,0.7c0,0.5,0.2,0.7,0.7,0.8c0.6,0.1,1.1,0.2,1.7,0.3
			c0.3,0.1,0.5,0.2,0.6,0.6c0.1,0.5,0.3,0.9,0.5,1.4c0.2,0.3,0.2,0.6,0,0.9c-0.3,0.5-0.7,0.9-1,1.4c-0.3,0.4-0.2,0.6,0.1,1
			c0.3,0.3,0.5,0.4,0.9,0.1c0.5-0.3,0.9-0.7,1.4-1c0.3-0.2,0.5-0.2,0.8-0.1c0.5,0.2,0.9,0.4,1.4,0.6c0.3,0.1,0.5,0.3,0.6,0.6
			c0.1,0.6,0.2,1.1,0.3,1.7C17.3,30.5,17.5,30.6,18,30.6z"/>
		<path class="st0" d="M13.1,4.3c2.3,0,4.6,0,6.9,0c1.1,0,1.8,0.7,1.8,1.8c0,0.3,0,0.6,0,1c0,0.9-0.7,1.6-1.6,1.6
			c-2.7,0-5.4,0-8.1,0c-0.4,0-0.6-0.2-0.6-0.6c0-0.3,0.3-0.5,0.7-0.5c2.6,0,5.2,0,7.8,0c0.7,0,0.8-0.2,0.8-0.8c0-0.2,0-0.5,0-0.7
			c0-0.5-0.2-0.7-0.7-0.7c-1.1,0-2.2,0-3.4,0c-3.5,0-7,0-10.5,0c-0.6,0-0.8,0.2-0.8,0.8c0,0.3,0,0.5,0,0.8c0,0.4,0.2,0.6,0.6,0.6
			c0.5,0,1,0,1.5,0c0.4,0,0.6,0.2,0.6,0.5c0,0.3-0.2,0.5-0.7,0.5c-0.5,0-1,0-1.5,0C5,8.7,4.3,8,4.3,7.1c0-0.4,0-0.7,0-1.1
			C4.3,5,5,4.3,6,4.3C8.4,4.3,10.7,4.3,13.1,4.3z"/>
		<path class="st0" d="M24,7.6c-0.6,0-1.1-0.5-1.1-1.1c0-0.6,0.5-1.1,1.1-1.1c0.6,0,1.1,0.5,1.1,1.1C25.1,7.1,24.6,7.6,24,7.6z"/>
		<path class="st0" d="M28.4,6.5c0,0.6-0.5,1.1-1.1,1.1c-0.6,0-1.1-0.5-1.1-1.1c0-0.6,0.5-1.1,1.1-1.1C27.9,5.4,28.4,5.9,28.4,6.5z"
			/>
		<path class="st0" d="M30.6,5.4c0.6,0,1.1,0.5,1.1,1.1c0,0.6-0.5,1.1-1.1,1.1c-0.6,0-1.1-0.5-1.1-1.1C29.5,5.9,30,5.4,30.6,5.4z"/>
		<path class="st0" d="M9.2,8.1c0-0.3,0.3-0.5,0.6-0.5c0.3,0,0.5,0.3,0.5,0.6c0,0.3-0.3,0.5-0.6,0.5C9.5,8.7,9.2,8.4,9.2,8.1z"/>
		<path class="st0" d="M13.6,21.8c0-2.4,2-4.4,4.4-4.4c2.4,0,4.4,2,4.4,4.4c0,2.4-2,4.4-4.3,4.4C15.6,26.2,13.6,24.3,13.6,21.8z
			 M18,18.5c-1.8,0-3.3,1.5-3.3,3.3c0,1.8,1.5,3.3,3.3,3.3c1.8,0,3.3-1.5,3.3-3.3C21.3,20,19.8,18.5,18,18.5z"/>
	</g>
</g>
</svg>
