<?xml version="1.0" encoding="utf-8"?>
<!-- Generator: Adobe Illustrator 27.5.0, SVG Export Plug-In . SVG Version: 6.00 Build 0)  -->
<svg version="1.1" id="Layer_1" xmlns="http://www.w3.org/2000/svg" xmlns:xlink="http://www.w3.org/1999/xlink" x="0px" y="0px"
	 width="36px" height="36px" viewBox="0 0 36 36" style="enable-background:new 0 0 36 36;" xml:space="preserve">
<style type="text/css">
	.st0{fill:#FFA52E;}
</style>
<path class="st0" d="M1.3,17.7c0.2-0.4,0.5-0.5,0.9-0.5c0.6,0,1.3,0,1.9,0c0-0.6,0-1.2,0-1.8c0-0.6,0.2-0.8,0.8-0.8
	c0.4,0,0.7,0,1.1,0c0.1,0,0.2-0.1,0.3-0.2c0.4-0.9,0.7-1.8,1.1-2.7c-0.2-0.2-0.6-0.5-0.9-0.8C6,10.5,6,10.2,6.5,9.7
	c1.1-1.1,2.2-2.2,3.3-3.3c0.5-0.5,0.8-0.5,1.3,0c0.2,0.2,0.5,0.5,0.7,0.7c0.1,0.1,0.2,0.1,0.3,0c0.8-0.3,1.6-0.7,2.4-1
	c0.1,0,0.2-0.2,0.2-0.2c0-0.4,0-0.8,0-1.2C14.8,4.2,15,4,15.5,4c1.7,0,3.3,0,5,0c0.5,0,0.8,0.2,0.8,0.8c0,0.4,0,0.8,0,1.1
	c0,0.2,0.1,0.2,0.2,0.3c0.8,0.3,1.6,0.7,2.4,1c0.1,0,0.2,0,0.3,0c0.3-0.3,0.6-0.5,0.8-0.8c0.4-0.4,0.7-0.4,1.1,0
	c1.2,1.2,2.3,2.3,3.5,3.5c0.4,0.4,0.4,0.7,0,1.1c-0.3,0.3-0.6,0.6-0.9,0.9c0.4,0.9,0.7,1.8,1.1,2.7c0,0.1,0.2,0.2,0.3,0.2
	c0.4,0,0.8,0,1.1,0c0.5,0,0.8,0.3,0.8,0.8c0,0.6,0,1.2,0,1.8c0.3,0,0.7,0,1,0c0.3,0,0.6,0,0.9,0c0.4,0,0.7,0.1,0.9,0.5
	c0,0.1,0,0.3,0,0.4c-0.2,0.4-0.5,0.5-0.9,0.5c-4.3,0-8.7,0-13,0c-0.1,0-0.2,0-0.2,0c-0.4,0-0.6-0.3-0.6-0.6c0-0.4,0.3-0.6,0.7-0.7
	c0.8,0,1.6,0,2.4,0c0.1,0,0.2,0,0.4,0c-0.2-2.1-2.1-4.8-5.4-4.8c-3.3,0-5.2,2.6-5.4,4.8c0.2,0,0.4,0,0.6,0c0.7,0,1.3,0,2,0
	c0.5,0,0.8,0.3,0.8,0.7c0,0.4-0.3,0.6-0.8,0.6c-4.4,0-8.8,0-13.2,0c-0.4,0-0.6-0.2-0.8-0.5C1.3,18,1.3,17.8,1.3,17.7z M30.6,17.2
	c0-0.4,0-0.8,0-1.3c-0.4,0-0.8,0-1.2,0c-0.5,0-0.7-0.1-0.8-0.6c-0.3-1.1-0.7-2.1-1.3-3.1c-0.3-0.5-0.3-0.7,0.1-1.1
	c0.3-0.3,0.5-0.5,0.8-0.8c-1-1-1.8-1.9-2.8-2.8c-0.2,0.3-0.5,0.5-0.8,0.8c-0.4,0.4-0.6,0.4-1.1,0.1c-1-0.6-2-1-3.1-1.3
	c-0.5-0.1-0.6-0.3-0.6-0.8c0-0.4,0-0.8,0-1.2c-1.3,0-2.6,0-3.9,0c0,0.4,0,0.8,0,1.2c0,0.5-0.1,0.7-0.6,0.8c-1.1,0.3-2.2,0.7-3.2,1.3
	c-0.4,0.2-0.6,0.2-1-0.1c-0.3-0.3-0.6-0.6-0.8-0.8c-0.9,0.9-1.9,1.8-2.8,2.8C8,10.7,8.3,11,8.6,11.2c0.3,0.3,0.3,0.6,0.1,1
	c-0.6,1-1,2-1.3,3.1C7.3,15.8,7.1,16,6.6,16c-0.4,0-0.8,0-1.2,0c0,0.5,0,0.9,0,1.3c2,0,3.9,0,5.8,0c0.4-3.6,3.4-6.1,6.8-6.1
	c3.4,0,6.3,2.5,6.7,6.1C26.7,17.2,28.6,17.2,30.6,17.2z"/>
<path class="st0" d="M15.1,24.4c0,1.2,0,2.4,0,3.6c0,0.9,0,1.7,0,2.6c0,0.4-0.2,0.6-0.5,0.7c-0.3,0.1-0.6-0.1-0.7-0.3
	c-0.1-0.1-0.1-0.3-0.1-0.4c0-2.9,0-5.8,0-8.7c0-0.4,0.2-0.6,0.5-0.7c0.3-0.1,0.6,0,0.8,0.4c1.1,1.9,2.1,3.8,3.2,5.6
	c0.1,0.1,0.1,0.2,0.2,0.3c0.3-0.5,0.5-0.9,0.7-1.3c0.8-1.5,1.7-3,2.5-4.5c0.1-0.1,0.1-0.2,0.2-0.3c0.2-0.2,0.4-0.3,0.7-0.2
	c0.3,0.1,0.4,0.3,0.4,0.5c0,0.1,0,0.2,0,0.3c0,2.8,0,5.6,0,8.4c0,0.1,0,0.2,0,0.3c0,0.3-0.3,0.5-0.6,0.6c-0.3,0-0.6-0.2-0.7-0.5
	c0-0.1,0-0.3,0-0.5c0-1.9,0-3.7,0-5.6c0-0.1,0-0.2,0-0.3c0,0,0,0-0.1,0c-0.1,0.1-0.1,0.2-0.2,0.3c-0.8,1.4-1.6,2.9-2.4,4.3
	c-0.2,0.3-0.3,0.5-0.7,0.5c-0.3,0-0.5-0.2-0.7-0.5c-0.8-1.4-1.6-2.9-2.4-4.3C15.2,24.5,15.2,24.4,15.1,24.4
	C15.1,24.4,15.1,24.4,15.1,24.4z"/>
<path class="st0" d="M5.2,26.1c0-1-0.1-1.9,0-2.9C5.3,22,6.5,21,7.8,21c0.7,0,1.4,0,2.1,0.1c1.2,0.2,2.1,1.3,2.1,2.5
	c0,0.4-0.2,0.7-0.6,0.7c-0.4,0-0.6-0.2-0.7-0.7c-0.1-0.9-0.6-1.4-1.5-1.4c-0.4,0-0.8,0-1.2,0c-0.8,0-1.4,0.6-1.4,1.4
	c0,1.7,0,3.4,0,5.1c0,0.8,0.6,1.3,1.4,1.3c0.5,0,0.9,0,1.4,0c0.8,0,1.3-0.5,1.4-1.3c0-0.1,0-0.1,0-0.2c0.1-0.4,0.4-0.6,0.7-0.5
	c0.3,0,0.6,0.3,0.6,0.6c0,1.3-1,2.5-2.3,2.7c-0.7,0.1-1.5,0.1-2.2,0c-1.3-0.2-2.2-1.3-2.3-2.7C5.1,27.8,5.1,27,5.2,26.1
	C5.2,26.1,5.2,26.1,5.2,26.1z"/>
<path class="st0" d="M27.8,20.7c1,0,1.8,0.4,2.4,1.2c0.3,0.4,0.3,0.8,0,1c-0.3,0.3-0.7,0.2-1-0.2c-0.5-0.6-1.3-0.8-2-0.6
	c-0.7,0.3-1.2,1-1.1,1.7c0,0.7,0.5,1.4,1.2,1.6c0.2,0.1,0.5,0.1,0.7,0.1c1.4,0.1,2.6,1.2,2.8,2.6c0.2,1.5-0.6,2.9-2,3.4
	c-1.4,0.5-2.9,0-3.7-1.3c-0.3-0.4-0.2-0.8,0.1-1c0.3-0.2,0.7-0.1,1,0.3c0.5,0.7,1.3,1,2,0.8c0.7-0.2,1.3-0.9,1.2-1.7
	c0-0.8-0.6-1.5-1.3-1.7c-0.2-0.1-0.5-0.1-0.7-0.1c-1.7-0.2-2.9-1.5-2.8-3.2C24.8,22,26.1,20.7,27.8,20.7z"/>
<path class="st0" d="M18,17.2c0.3,0,0.6,0.3,0.7,0.6c0,0.4-0.3,0.7-0.7,0.7c-0.3,0-0.6-0.3-0.6-0.7C17.4,17.5,17.6,17.3,18,17.2z"/>
</svg>
