<svg clip-rule="evenodd" fill-rule="evenodd" height="1.707in" image-rendering="optimizeQuality" shape-rendering="geometricPrecision" text-rendering="geometricPrecision" viewBox="0 0 1707 1707" width="1.707in" xmlns="http://www.w3.org/2000/svg"><g id="Layer_x0020_1"><g id="_409054424" fill="#114de2"><path d="m853 601c-16 0-29-13-29-29v-185c0-16 13-29 29-29s29 13 29 29v185c0 16-13 29-29 29z"/><path d="m1097 742c-10 0-20-6-25-15-8-14-3-32 11-40l159-92c14-8 32-3 40 11s3 31-11 39l-159 93c-5 2-10 4-15 4z"/><path d="m1257 1115c-5 0-10-1-15-4l-159-92c-14-8-19-25-11-39s26-19 40-11l159 92c14 8 19 26 11 40-5 9-15 14-25 14z"/><path d="m853 1348c-16 0-29-13-29-29v-184c0-16 13-29 29-29s29 13 29 29v184c0 16-13 29-29 29z"/><path d="m450 1115c-10 0-20-5-25-14-8-14-4-32 10-40l160-92c14-8 32-3 40 11s3 31-11 39l-160 92c-4 3-9 4-14 4z"/><path d="m609 742c-5 0-9-2-14-4l-160-93c-14-8-18-25-10-39s25-19 39-11l160 92c14 8 19 26 11 40-6 9-16 15-26 15z"/></g><g id="_409053584" fill="#0e3eb7"><path d="m994 638c-5 0-10-1-14-3-14-8-19-26-11-40l201-348c8-14 26-19 40-11s18 26 10 40l-201 348c-5 9-15 14-25 14z"/><path d="m1537 882h-402c-16 0-29-13-29-29s13-29 29-29h402c16 0 29 13 29 29s-13 29-29 29z"/><path d="m1195 1475c-10 0-20-6-25-15l-201-348c-8-14-3-32 11-40 13-8 31-3 39 11l201 348c8 14 4 32-10 40-5 2-10 4-15 4z"/><path d="m511 1475c-5 0-10-2-14-4-14-8-19-26-11-40l201-348c8-14 26-19 40-11s19 26 11 40l-201 348c-6 9-16 15-26 15z"/><path d="m572 882h-402c-16 0-29-13-29-29s13-29 29-29h402c16 0 29 13 29 29s-13 29-29 29z"/><path d="m713 638c-10 0-20-5-26-14l-201-348c-8-14-3-32 11-40s32-3 40 11l201 348c8 14 3 32-11 40-5 2-10 3-14 3z"/></g><g fill="#ffbf18"><g id="_409052096"><path d="m1012 251c-3 0-7-1-10-2-15-6-23-23-17-38l39-105c6-15 23-22 38-16 15 5 22 22 17 37l-40 105c-4 11-15 19-27 19z"/><path d="m695 251c-12 0-23-8-27-19l-40-105c-6-15 2-32 17-37 15-6 31 1 37 16l40 105c6 15-2 32-17 38-3 1-7 2-10 2z"/><path d="m1480 704c-14 0-26-10-29-25-2-15 8-30 24-33l111-18c15-2 30 8 33 24s-8 31-24 33l-110 18c-2 1-4 1-5 1z"/><path d="m1321 429c-6 0-13-2-18-7-13-10-14-28-4-40l71-87c10-13 28-14 41-4 12 10 14 28 4 41l-71 86c-6 7-14 11-23 11z"/><path d="m1392 1422c-8 0-17-3-22-10l-71-87c-10-12-9-31 4-41 12-10 31-8 41 4l71 87c10 12 8 31-4 41-6 4-12 6-19 6z"/><path d="m1590 1079c-1 0-3 0-4 0l-111-18c-16-3-26-18-24-34 3-16 18-26 34-24l110 18c16 3 27 18 24 34-2 14-15 24-29 24z"/><path d="m655 1619c-3 0-7-1-10-2-15-6-23-22-17-37l40-105c5-15 22-23 37-17s23 22 17 37l-40 105c-4 12-15 19-27 19z"/><path d="m1052 1619c-12 0-23-7-28-19l-39-105c-6-15 2-31 17-37s31 2 37 17l40 105c5 15-2 31-17 37-3 1-7 2-10 2z"/><path d="m116 1079c-14 0-26-10-28-24-3-16 8-31 24-34l110-18c16-2 31 8 33 24 3 16-8 31-23 34l-111 18c-2 0-3 0-5 0z"/><path d="m315 1422c-7 0-13-2-19-6-12-10-14-29-4-41l71-87c10-12 28-14 41-4 12 10 14 29 4 41l-71 87c-6 7-14 10-22 10z"/><path d="m385 429c-8 0-16-4-22-11l-71-86c-10-13-8-31 4-41 13-10 31-9 41 4l71 87c10 12 8 30-4 40-6 5-12 7-19 7z"/><path d="m227 704c-2 0-3 0-5-1l-110-18c-16-2-27-17-24-33 2-16 17-26 33-24l110 18c16 3 27 18 24 33-2 15-14 25-28 25z"/></g><path d="m1570 1707c-69 0-126-57-126-127s57-126 126-126c70 0 127 56 127 126s-57 127-127 127zm-1434 0c-69 0-126-57-126-127s57-126 126-126c70 0 127 56 127 126s-57 127-127 127zm0-1454c-69 0-126-57-126-126 0-70 57-127 126-127 70 0 127 57 127 127 0 69-57 126-127 126zm1434 0c-69 0-126-57-126-126 0-70 57-127 126-127 70 0 127 57 127 127 0 69-57 126-127 126z"/></g></g></svg>