<?xml version="1.0" encoding="utf-8"?>
<!-- Generator: Adobe Illustrator 27.5.0, SVG Export Plug-In . SVG Version: 6.00 Build 0)  -->
<svg version="1.1" id="Layer_1" xmlns="http://www.w3.org/2000/svg" xmlns:xlink="http://www.w3.org/1999/xlink" x="0px" y="0px"
	 width="36px" height="36px" viewBox="0 0 36 36" style="enable-background:new 0 0 36 36;" xml:space="preserve">
<style type="text/css">
	.st0{fill-rule:evenodd;clip-rule:evenodd;fill:#9F69FA;}
</style>
<g>
	<g>
		<path class="st0" d="M33.8,3.1C33.8,3.1,33.8,3.1,33.8,3.1c-0.4-0.4-0.9-0.6-1.4-0.6H4.1c-0.5,0-1,0.2-1.4,0.6l0,0l0,0l0,0
			C2.3,3.5,2.1,4,2.1,4.5v27.1c0,0.6,0.2,1,0.6,1.4c0.4,0.4,0.9,0.6,1.4,0.6h28.3c0.5,0,1-0.2,1.4-0.6l0,0l0,0l0,0
			c0.4-0.4,0.6-0.9,0.6-1.4V4.5C34.4,4,34.1,3.5,33.8,3.1z M30.2,5.1c0.7,0,1.3,0.6,1.3,1.3s-0.6,1.3-1.3,1.3
			c-0.7,0-1.3-0.6-1.3-1.3S29.5,5.1,30.2,5.1z M25.7,5.1c0.7,0,1.3,0.6,1.3,1.3s-0.6,1.3-1.3,1.3c-0.7,0-1.3-0.6-1.3-1.3
			S25,5.1,25.7,5.1z M21.2,5.1c0.7,0,1.3,0.6,1.3,1.3s-0.6,1.3-1.3,1.3s-1.3-0.6-1.3-1.3S20.5,5.1,21.2,5.1z M32.7,30.5h-29V9.2h29
			C32.7,9.2,32.7,30.5,32.7,30.5z"/>
		<g>
			<path class="st0" d="M14.4,18l-2.9,2.8c-0.1,0.1-0.1,0.3,0,0.4l2.9,2.6c0.4,0.3,0.5,0.9,0.4,1.3c-0.1,0.3-0.4,0.6-0.9,0.6
				c-0.3,0-0.6-0.1-0.9-0.3l-4.4-3.8c0,0-0.3-0.6,0-1.1l4.2-3.8c0.4-0.3,0.9-0.5,1.4-0.3c0.3,0.1,0.6,0.3,0.6,0.7
				C14.8,17.4,14.6,17.8,14.4,18z"/>
			<path class="st0" d="M22,17.9l2.9,2.8c0.1,0.1,0.1,0.3,0,0.4L22,23.7c-0.4,0.3-0.5,0.9-0.4,1.3c0.1,0.3,0.4,0.6,0.9,0.6
				c0.3,0,0.6-0.1,0.9-0.3l4.4-3.8c0,0,0.3-0.6,0-1.1l-4.2-3.8c-0.4-0.3-0.9-0.5-1.4-0.3c-0.3,0.1-0.6,0.3-0.6,0.7
				C21.7,17.4,21.8,17.7,22,17.9z"/>
			<path class="st0" d="M16.8,27L16.8,27c-0.7-0.1-1.1-0.8-0.9-1.5l2.2-9.8c0.1-0.7,0.8-1.1,1.5-0.9l0,0c0.7,0.1,1.1,0.8,0.9,1.5
				l-2.2,9.8C18.1,26.8,17.5,27.2,16.8,27z"/>
		</g>
	</g>
</g>
</svg>
