<?xml version="1.0" encoding="utf-8"?>
<!-- Generator: Adobe Illustrator 27.5.0, SVG Export Plug-In . SVG Version: 6.00 Build 0)  -->
<svg version="1.1" id="Layer_1" xmlns="http://www.w3.org/2000/svg" xmlns:xlink="http://www.w3.org/1999/xlink" x="0px" y="0px"
	 width="36px" height="36px" viewBox="0 0 36 36" style="enable-background:new 0 0 36 36;" xml:space="preserve">
<style type="text/css">
	.st0{fill:#86D060;}
</style>
<path class="st0" d="M7.2,23.4L3.3,25c-0.7,0.3-0.7,1.3,0,1.6l14.7,5.9c0.2,0.1-0.2,0.1,0,0l14.8-7c0.7-0.3,0.7-1.3-0.1-1.6L29,22.5
	c-0.2-0.1-0.5-0.1-0.7,0l-10.4,4.9c-0.2,0.1,0.2,0.1,0,0L7.9,23.4C7.6,23.3,7.4,23.3,7.2,23.4z"/>
<path class="st0" d="M7.1,15.9l-3.4,1.4c-0.9,0.4-0.9,1.6,0,1.9L17.9,25c0.3,0.1-0.3,0.1,0,0l14.4-6.8c0.8-0.4,0.8-1.6-0.1-1.9
	L29,15.1c-0.3-0.1-0.6-0.1-0.8,0L17.9,20c-0.3,0.1,0.3,0.1,0,0l-10-4.1C7.7,15.8,7.4,15.8,7.1,15.9z"/>
<path class="st0" d="M3.8,11.8l14.1,5.6c0.3,0.1-0.3,0.1,0,0l14.4-6.8c0.9-0.4,0.8-1.7-0.1-2l-14.3-5c-0.3-0.1,0.3-0.1,0,0L3.8,9.8
	C2.9,10.2,2.9,11.4,3.8,11.8z"/>
</svg>
